{
  "accessors": [
    {
      "bufferView": 2,
      "componentType": 5126,
      "count": 140,
      "max": [
        -96.036918640136719,
        38.726993560791016,
        63.719860076904297
      ],
      "min": [
        -168.42868041992188,
        -42.596202850341797,
        -7.4488949775695801
      ],
      "type": "VEC3"
    },
    {
      "bufferView": 2,
      "byteOffset": 1680,
      "componentType": 5126,
      "count": 140,
      "max": [
        0.90436601638793945,
        0.89136189222335815,
        0.99967777729034424
      ],
      "min": [
        -0.8838810920715332,
        -0.90568739175796509,
        -0.94687336683273315
      ],
      "type": "VEC3"
    },
    {
      "bufferView": 3,
      "componentType": 5126,
      "count": 140,
      "max": [
        0.95040047168731689,
        0.99605238437652588,
        0.89744406938552856,
        1
      ],
      "min": [
        -0.97512298822402954,
        -0.98615455627441406,
        -0.99001652002334595,
        1
      ],
      "type": "VEC4"
    },
    {
      "bufferView": 1,
      "componentType": 5126,
      "count": 140,
      "max": [
        1.4127429723739624,
        0.99833697080612183
      ],
      "min": [
        -0.38487699627876282,
        -0.41286399960517883
      ],
      "type": "VEC2"
    },
    {
      "bufferView": 0,
      "componentType": 5125,
      "count": 348,
      "max": [
        139
      ],
      "min": [
        0
      ],
      "type": "SCALAR"
    },
    {
      "bufferView": 2,
      "byteOffset": 3360,
      "componentType": 5126,
      "count": 1314,
      "max": [
        -71.252029418945312,
        60.129989624023438,
        23.695514678955078
      ],
      "min": [
        -187.82424926757812,
        -64.820785522460938,
        -1.7288730144500732
      ],
      "type": "VEC3"
    },
    {
      "bufferView": 2,
      "byteOffset": 19128,
      "componentType": 5126,
      "count": 1314,
      "max": [
        0.99852997064590454,
        0.99116766452789307,
        0.99973511695861816
      ],
      "min": [
        -0.99516290426254272,
        -0.99949449300765991,
        -1
      ],
      "type": "VEC3"
    },
    {
      "bufferView": 3,
      "byteOffset": 2240,
      "componentType": 5126,
      "count": 1314,
      "max": [
        1,
        0.99995940923690796,
        0.13974578678607941,
        1
      ],
      "min": [
        -0.99942058324813843,
        -0.99997258186340332,
        -0.55353045463562012,
        -1
      ],
      "type": "VEC4"
    },
    {
      "bufferView": 1,
      "byteOffset": 1120,
      "componentType": 5126,
      "count": 1314,
      "max": [
        1.6152509450912476,
        1.1847259998321533
      ],
      "min": [
        -0.47256800532341003,
        0
      ],
      "type": "VEC2"
    },
    {
      "bufferView": 0,
      "byteOffset": 1392,
      "componentType": 5125,
      "count": 5292,
      "max": [
        1313
      ],
      "min": [
        0
      ],
      "type": "SCALAR"
    },
    {
      "bufferView": 2,
      "byteOffset": 34896,
      "componentType": 5126,
      "count": 108,
      "max": [
        -96.036918640136719,
        38.726993560791016,
        63.719860076904297
      ],
      "min": [
        -168.42868041992188,
        -42.596202850341797,
        -7.4488949775695801
      ],
      "type": "VEC3"
    },
    {
      "bufferView": 2,
      "byteOffset": 36192,
      "componentType": 5126,
      "count": 108,
      "max": [
        0.87038928270339966,
        0.99551022052764893,
        0.95670962333679199
      ],
      "min": [
        -0.96585863828659058,
        -0.95329141616821289,
        -0.80044317245483398
      ],
      "type": "VEC3"
    },
    {
      "bufferView": 3,
      "byteOffset": 23264,
      "componentType": 5126,
      "count": 108,
      "max": [
        0.87790340185165405,
        0.64993017911911011,
        0.84311181306838989,
        1
      ],
      "min": [
        -0.79119294881820679,
        -0.49120450019836426,
        -0.85917437076568604,
        1
      ],
      "type": "VEC4"
    },
    {
      "bufferView": 1,
      "byteOffset": 11632,
      "componentType": 5126,
      "count": 108,
      "max": [
        -0.19798299670219421,
        0.90899497270584106
      ],
      "min": [
        -0.90270501375198364,
        -0.92122000455856323
      ],
      "type": "VEC2"
    },
    {
      "bufferView": 0,
      "byteOffset": 22560,
      "componentType": 5125,
      "count": 156,
      "max": [
        107
      ],
      "min": [
        0
      ],
      "type": "SCALAR"
    }
  ],
  "asset": {
    "generator": "Sketchfab (OSG glTF plugin)",
    "version": "2.0"
  },
  "bufferViews": [
    {
      "buffer": 0,
      "byteLength": 23184,
      "byteOffset": 0,
      "name": "floatBufferViews",
      "target": 34963
    },
    {
      "buffer": 0,
      "byteLength": 12496,
      "byteOffset": 23184,
      "byteStride": 8,
      "name": "floatBufferViews",
      "target": 34962
    },
    {
      "buffer": 0,
      "byteLength": 37488,
      "byteOffset": 35680,
      "byteStride": 12,
      "name": "floatBufferViews",
      "target": 34962
    },
    {
      "buffer": 0,
      "byteLength": 24992,
      "byteOffset": 73168,
      "byteStride": 16,
      "name": "floatBufferViews",
      "target": 34962
    }
  ],
  "buffers": [
    {
      "byteLength": 98160,
      "uri": "scene.bin"
    }
  ],
  "images": [
    {
      "uri": "textures/pasted__blinn1SG2_baseColor.jpeg"
    },
    {
      "uri": "textures/pasted__blinn1SG1_baseColor.jpeg"
    },
    {
      "uri": "textures/pasted__blinn2SG_baseColor.jpeg"
    }
  ],
  "materials": [
    {
      "doubleSided": true,
      "emissiveFactor": [
        0,
        0,
        0
      ],
      "name": "pasted__blinn1SG1",
      "pbrMetallicRoughness": {
        "baseColorFactor": [
          1,
          1,
          1,
          1
        ],
        "baseColorTexture": {
          "index": 1,
          "texCoord": 0
        },
        "metallicFactor": 0,
        "roughnessFactor": 1
      }
    },
    {
      "doubleSided": true,
      "emissiveFactor": [
        0,
        0,
        0
      ],
      "name": "pasted__blinn1SG2",
      "pbrMetallicRoughness": {
        "baseColorFactor": [
          1,
          1,
          1,
          1
        ],
        "baseColorTexture": {
          "index": 0,
          "texCoord": 0
        },
        "metallicFactor": 0,
        "roughnessFactor": 1
      }
    },
    {
      "doubleSided": true,
      "emissiveFactor": [
        0,
        0,
        0
      ],
      "name": "pasted__blinn2SG",
      "pbrMetallicRoughness": {
        "baseColorFactor": [
          1,
          1,
          1,
          1
        ],
        "baseColorTexture": {
          "index": 2,
          "texCoord": 0
        },
        "metallicFactor": 0,
        "roughnessFactor": 1
      }
    }
  ],
  "meshes": [
    {
      "primitives": [
        {
          "attributes": {
            "NORMAL": 1,
            "POSITION": 0,
            "TANGENT": 2,
            "TEXCOORD_0": 3
          },
          "indices": 4,
          "material": 0,
          "mode": 4
        }
      ]
    },
    {
      "primitives": [
        {
          "attributes": {
            "NORMAL": 6,
            "POSITION": 5,
            "TANGENT": 7,
            "TEXCOORD_0": 8
          },
          "indices": 9,
          "material": 1,
          "mode": 4
        }
      ]
    },
    {
      "primitives": [
        {
          "attributes": {
            "NORMAL": 11,
            "POSITION": 10,
            "TANGENT": 12,
            "TEXCOORD_0": 13
          },
          "indices": 14,
          "material": 2,
          "mode": 4
        }
      ]
    }
  ],
  "nodes": [
    {
      "children": [
        1
      ],
      "name": "RootNode (gltf orientation matrix)",
      "rotation": [
        -0.70710678118654746,
        -0,
        -0,
        0.70710678118654757
      ]
    },
    {
      "children": [
        2
      ],
      "name": "RootNode (model correction matrix)"
    },
    {
      "children": [
        3
      ],
      "name": "Campfire.obj.cleaner.materialmerger.gles"
    },
    {
      "children": [
        4,
        5,
        6
      ],
      "name": "Geode"
    },
    {
      "mesh": 0,
      "name": ""
    },
    {
      "mesh": 1,
      "name": ""
    },
    {
      "mesh": 2,
      "name": ""
    }
  ],
  "samplers": [
    {
      "magFilter": 9729,
      "minFilter": 9987,
      "wrapS": 10497,
      "wrapT": 10497
    }
  ],
  "scene": 0,
  "scenes": [
    {
      "name": "OSG_Scene",
      "nodes": [
        0
      ]
    }
  ],
  "textures": [
    {
      "sampler": 0,
      "source": 0
    },
    {
      "sampler": 0,
      "source": 1
    },
    {
      "sampler": 0,
      "source": 2
    }
  ]
}

