{
  "accessors": [
    {
      "bufferView": 2,
      "componentType": 5126,
      "count": 2889,
      "max": [
        14.959628105163574,
        14.959628105163574,
        6.5117511749267578
      ],
      "min": [
        -14.959628105163574,
        -14.959628105163574,
        -0.066220268607139587
      ],
      "type": "VEC3"
    },
    {
      "bufferView": 2,
      "byteOffset": 34668,
      "componentType": 5126,
      "count": 2889,
      "max": [
        1,
        1,
        0.99648040533065796
      ],
      "min": [
        -1,
        -1,
        -1
      ],
      "type": "VEC3"
    },
    {
      "bufferView": 3,
      "componentType": 5126,
      "count": 2889,
      "max": [
        0.99999767541885376,
        0.99996846914291382,
        1,
        1
      ],
      "min": [
        -1,
        -0.99990183115005493,
        -0.99999332427978516,
        -1
      ],
      "type": "VEC4"
    },
    {
      "bufferView": 1,
      "componentType": 5126,
      "count": 2889,
      "max": [
        0.99738228321075439,
        0.99400365352630615
      ],
      "min": [
        0.0046940618194639683,
        -0.00026629585772752762
      ],
      "type": "VEC2"
    },
    {
      "bufferView": 0,
      "componentType": 5125,
      "count": 8334,
      "max": [
        2888
      ],
      "min": [
        0
      ],
      "type": "SCALAR"
    }
  ],
  "asset": {
    "generator": "Sketchfab (OSG glTF plugin)",
    "version": "2.0"
  },
  "bufferViews": [
    {
      "buffer": 0,
      "byteLength": 33336,
      "byteOffset": 0,
      "name": "floatBufferViews",
      "target": 34963
    },
    {
      "buffer": 0,
      "byteLength": 23112,
      "byteOffset": 33336,
      "byteStride": 8,
      "name": "floatBufferViews",
      "target": 34962
    },
    {
      "buffer": 0,
      "byteLength": 69336,
      "byteOffset": 56448,
      "byteStride": 12,
      "name": "floatBufferViews",
      "target": 34962
    },
    {
      "buffer": 0,
      "byteLength": 46224,
      "byteOffset": 125784,
      "byteStride": 16,
      "name": "floatBufferViews",
      "target": 34962
    }
  ],
  "buffers": [
    {
      "byteLength": 172008,
      "uri": "scene.bin"
    }
  ],
  "images": [
    {
      "uri": "textures/Scene%20-%20Root_baseColor.jpg"
    },
    {
      "uri": "textures/Scene%20-%20Root_normal.png"
    },
    {
      "uri": "textures/Scene%20-%20Root_emissive.jpg"
    }
  ],
  "materials": [
    {
      "doubleSided": true,
      "emissiveFactor": [
        0.62690548779999999,
        0.62690548779999999,
        0.62690548779999999
      ],
      "emissiveTexture": {
        "index": 2,
        "texCoord": 0
      },
      "name": "Scene - Root",
      "normalTexture": {
        "index": 1,
        "scale": 0.40415396339999998,
        "texCoord": 0
      },
      "pbrMetallicRoughness": {
        "baseColorFactor": [
          1,
          1,
          1,
          1
        ],
        "baseColorTexture": {
          "index": 0,
          "texCoord": 0
        },
        "metallicFactor": 0.4834222561,
        "roughnessFactor": 0.17854420730000001
      }
    }
  ],
  "meshes": [
    {
      "name": "start fire place__0",
      "primitives": [
        {
          "attributes": {
            "NORMAL": 1,
            "POSITION": 0,
            "TANGENT": 2,
            "TEXCOORD_0": 3
          },
          "indices": 4,
          "material": 0,
          "mode": 4
        }
      ]
    }
  ],
  "nodes": [
    {
      "children": [
        1
      ],
      "name": "RootNode (gltf orientation matrix)",
      "rotation": [
        -0.70710678118654746,
        -0,
        -0,
        0.70710678118654757
      ]
    },
    {
      "children": [
        2
      ],
      "name": "RootNode (model correction matrix)"
    },
    {
      "children": [
        3
      ],
      "matrix": [
        1,
        0,
        0,
        0,
        0,
        0,
        1,
        0,
        0,
        -1,
        0,
        0,
        0,
        0,
        0,
        1
      ],
      "name": "116bf854fb264e65a2cb46b1504349d7.fbx"
    },
    {
      "children": [
        4
      ],
      "name": "RootNode"
    },
    {
      "children": [
        6
      ],
      "matrix": [
        1,
        0,
        0,
        0,
        0,
        2.2204460492503131e-16,
        -1,
        0,
        0,
        1,
        2.2204460492503131e-16,
        0,
        0,
        -0.06995035707950592,
        -7.2089703095912228e-09,
        1
      ],
      "name": "start fire place"
    },
    {
      "mesh": 0,
      "name": "start fire place__0"
    },
    {
      "children": [
        5
      ],
      "name": "Geode"
    }
  ],
  "samplers": [
    {
      "magFilter": 9729,
      "minFilter": 9987,
      "wrapS": 10497,
      "wrapT": 10497
    }
  ],
  "scene": 0,
  "scenes": [
    {
      "name": "OSG_Scene",
      "nodes": [
        0
      ]
    }
  ],
  "textures": [
    {
      "sampler": 0,
      "source": 0
    },
    {
      "sampler": 0,
      "source": 1
    },
    {
      "sampler": 0,
      "source": 2
    }
  ]
}

